<?xml version="1.0" ?>
<!-- Uploaded to: SVG Repo, www.svgrepo.com, Generator: SVG Repo Mixer Tools -->
<svg width="800px" height="800px" viewBox="0 0 512 512" id="Layer_1" version="1.1" xml:space="preserve" xmlns="http://www.w3.org/2000/svg" xmlns:xlink="http://www.w3.org/1999/xlink">
<style type="text/css">
	.st0{fill:#3B4652;}
	.st1{fill:#2B79C2;}
</style>
<g>
<polygon class="st0" points="240.7,263.4 179.6,353.3 189.9,475 278.6,475 278.6,255.5 246,255.5  "/>
<polygon class="st0" points="381.1,255.5 381.1,475 469.7,475 488.2,255.5  "/>
<path class="st0" d="M234.4,247.7l-46.6-31.6l-52.3,77c-2.8-10.4-9-21.1-16.7-28.8c-10.1-10.2-22.3-14.7-34.3-12.9   c-8.5,1.3-15.9,6.4-19.8,13.6c-8.1,15.2,2.6,30.3,6.7,36c3.3,4.7,6.9,9.1,10.6,13.3c-5.3-1.8-10.7-3.5-16.3-4.9   c-6.8-1.7-24.7-6.1-35.9,7.1c-5.3,6.3-7.3,15-5.3,23.4c2.7,11.8,11.5,21.4,24.7,27.1c7.9,3.4,17.2,5.2,26.1,5.2   c2.3,0,4.6-0.1,6.8-0.4l-50.3,74.2l46.6,31.6l99.3-146.4l51.3-75.6L234.4,247.7z M77.1,271.5c1.8-3.3,5.3-5.7,9.5-6.3   c1-0.2,2.1-0.2,3.1-0.2c16.1,0,29.4,19,32.7,33.3c0.9,4.1,1.3,8.3,1.2,12.5l-0.1,0.2v0l-10.2,15c-10.1-9.2-21.1-20.2-30.4-33.2   C76,283.2,74.3,276.8,77.1,271.5z M82.1,357.6c-15.4,2.3-39.9-3.8-43.9-21c-1-4.1-0.1-8.3,2.4-11.2c2.4-2.8,5.7-4.2,10.6-4.2   c3.1,0,6.8,0.6,11.3,1.7c15.5,3.8,30.2,10.2,42,16L96.2,351c0,0,0,0,0,0l-2.1,3C90.2,355.8,86.2,357,82.1,357.6z"/>
<path class="st1" d="M305.4,112.7c11.9,0,21.7-9.7,21.7-21.7V77.6c0-11.9-9.7-21.7-21.7-21.7s-21.7,9.7-21.7,21.7V91   C283.7,103,293.4,112.7,305.4,112.7z M297.7,77.6c0-4.2,3.4-7.7,7.7-7.7s7.7,3.4,7.7,7.7V91c0,4.2-3.4,7.7-7.7,7.7   s-7.7-3.4-7.7-7.7V77.6z"/>
<path class="st1" d="M354.2,133.8c-11.9,0-21.7,9.7-21.7,21.7v13.4c0,11.9,9.7,21.7,21.7,21.7s21.7-9.7,21.7-21.7v-13.4   C375.9,143.6,366.2,133.8,354.2,133.8z M361.9,168.9c0,4.2-3.4,7.7-7.7,7.7s-7.7-3.4-7.7-7.7v-13.4c0-4.2,3.4-7.7,7.7-7.7   s7.7,3.4,7.7,7.7V168.9z"/>
<path class="st1" d="M301.9,180.1L369.6,74c2.1-3.3,1.1-7.6-2.1-9.7c-3.3-2.1-7.6-1.1-9.7,2.1l-67.7,106.1   c-2.1,3.3-1.1,7.6,2.1,9.7c1.2,0.7,2.5,1.1,3.8,1.1C298.3,183.3,300.5,182.2,301.9,180.1z"/>
<path class="st0" d="M405,78.9c1.8,0,3.6-0.7,5-2.1l30.4-30.4c2.7-2.7,2.7-7.2,0-9.9c-2.7-2.7-7.2-2.7-9.9,0L400,66.9   c-2.7,2.7-2.7,7.2,0,9.9C401.4,78.2,403.2,78.9,405,78.9z"/>
<path class="st0" d="M400,173.2c-2.7,2.7-2.7,7.2,0,9.9l30.4,30.4c1.4,1.4,3.2,2.1,4.9,2.1s3.6-0.7,5-2.1c2.7-2.7,2.7-7.2,0-9.9   l-30.4-30.4C407.2,170.5,402.8,170.5,400,173.2z"/>
<path class="st0" d="M405.5,118c-3.9,0-7,3.1-7,7s3.1,7,7,7h34.7c3.9,0,7-3.1,7-7s-3.1-7-7-7H405.5z"/>
<path class="st0" d="M249.7,76.8c1.4,1.4,3.2,2.1,5,2.1c1.8,0,3.6-0.7,4.9-2.1c2.7-2.7,2.7-7.2,0-9.9l-30.4-30.4   c-2.7-2.7-7.2-2.7-9.9,0c-2.7,2.7-2.7,7.2,0,9.9L249.7,76.8z"/>
<path class="st0" d="M249.7,173.2l-30.4,30.4c-2.7,2.7-2.7,7.2,0,9.9c1.4,1.4,3.2,2.1,4.9,2.1s3.6-0.7,5-2.1l30.4-30.4   c2.7-2.7,2.7-7.2,0-9.9C256.8,170.5,252.4,170.5,249.7,173.2z"/>
<path class="st0" d="M219.4,132h34.7c3.9,0,7-3.1,7-7s-3.1-7-7-7h-34.7c-3.9,0-7,3.1-7,7S215.5,132,219.4,132z"/>
<rect class="st1" height="219.4" width="74.5" x="292.6" y="255.5"/>
</g>
</svg>